<?xml version="1.0" standalone="no"?>
<!DOCTYPE svg PUBLIC "-//W3C//DTD SVG 20010904//EN"
 "http://www.w3.org/TR/2001/REC-SVG-20010904/DTD/svg10.dtd">
<svg version="1.0" xmlns="http://www.w3.org/2000/svg"
 width="4.800000pt" height="4.800000pt" viewBox="0 0 4.800000 4.800000"
 preserveAspectRatio="xMidYMid meet">
<metadata>
Created by potrace 1.16, written by Peter Selinger 2001-2019
</metadata>
<g transform="translate(0.000000,4.800000) scale(0.001280,-0.001387)"
fill="#000000" stroke="none">
<path d="M0 1730 l0 -1730 1875 0 1875 0 0 1730 0 1730 -1875 0 -1875 0 0
-1730z m2090 1605 c390 -46 722 -196 1013 -456 242 -217 433 -557 494 -881 24
-130 24 -428 -1 -553 -102 -515 -449 -946 -953 -1181 -370 -172 -816 -211
-1230 -105 -484 124 -892 450 -1110 886 -388 775 -58 1695 755 2106 325 165
673 227 1032 184z"/>
<path d="M1706 3259 c-291 -31 -595 -142 -826 -304 -117 -82 -321 -288 -399
-403 -117 -173 -210 -403 -240 -592 -16 -101 -24 -261 -17 -323 l7 -57 1650 0
1649 0 6 26 c12 48 -4 296 -25 400 -82 397 -319 742 -673 977 -321 214 -744
317 -1132 276z m-235 -396 c109 -49 179 -144 187 -254 7 -96 -13 -144 -88
-212 l-59 -53 45 -24 c59 -31 118 -99 138 -157 41 -121 9 -260 -82 -356 -83
-86 -156 -119 -280 -125 -158 -7 -263 36 -344 143 -39 51 -78 154 -78 206 l0
30 107 -3 107 -3 9 -38 c13 -53 71 -112 125 -126 122 -33 236 43 236 159 0 92
-75 158 -204 179 -36 6 -68 11 -72 11 -5 0 -8 43 -8 95 0 106 -7 97 83 109 89
12 152 68 152 136 0 113 -157 144 -247 49 l-37 -39 -102 0 -101 0 7 37 c21
113 112 207 240 250 60 19 209 12 266 -14z m1040 -128 c26 -66 128 -324 227
-573 l180 -453 -116 3 -116 3 -45 118 -44 117 -242 0 -242 0 -44 -117 -45
-118 -118 -3 c-65 -1 -115 1 -112 6 3 6 377 941 447 1120 8 22 12 23 116 20
l106 -3 48 -120z"/>
<path d="M2320 2464 c-92 -221 -120 -290 -120 -296 0 -5 70 -8 155 -8 85 0
155 3 155 8 0 8 -134 334 -148 358 -7 13 -16 -1 -42 -62z"/>
<path d="M240 1493 c0 -10 7 -47 15 -83 59 -251 183 -486 362 -682 246 -271
558 -442 943 -519 163 -33 470 -34 641 -1 570 107 1038 481 1239 988 34 84 80
253 80 290 l0 24 -1640 0 c-1555 0 -1640 -1 -1640 -17z m507 -243 c29 -80 52
-148 52 -152 1 -9 -30 -15 -51 -10 -9 2 -22 20 -29 39 -11 34 -11 34 -67 31
-54 -3 -57 -4 -66 -35 -5 -19 -16 -34 -25 -34 -16 -1 -44 1 -48 5 -2 2 95 285
103 298 3 5 22 8 42 6 l37 -3 52 -145z m143 27 c5 -127 10 -137 61 -137 44 0
54 23 59 144 5 110 5 111 30 111 l25 0 3 -123 3 -123 -29 -29 c-56 -56 -165
-49 -202 13 -17 27 -20 51 -20 143 0 61 3 114 7 118 4 4 19 6 33 4 25 -3 25
-4 30 -121z m445 93 c0 -22 -5 -25 -42 -28 l-43 -3 0 -123 c0 -112 -2 -124
-19 -129 -10 -2 -26 0 -35 5 -13 8 -16 28 -16 128 l0 120 -35 0 c-37 0 -52 17
-41 45 5 13 25 15 118 13 l113 -3 0 -25z m246 7 c86 -58 73 -232 -21 -280 -67
-35 -166 -8 -197 54 -19 36 -16 138 5 179 34 68 145 93 213 47z m197 5 c10
-10 31 -55 47 -100 16 -45 32 -82 36 -82 3 0 21 41 39 90 33 92 48 110 92 110
44 0 48 -15 48 -166 0 -130 -2 -142 -19 -147 -43 -11 -51 8 -52 116 l0 102
-25 -65 c-13 -36 -31 -84 -40 -106 -16 -44 -43 -60 -68 -40 -8 6 -30 56 -50
111 l-35 100 0 -102 c-1 -108 -9 -127 -52 -116 -17 5 -19 17 -19 147 0 97 4
146 12 154 18 18 66 14 86 -6z m543 -5 c86 -58 73 -232 -21 -280 -67 -35 -166
-8 -197 54 -19 36 -16 138 5 179 34 68 145 93 213 47z m294 -7 c0 -22 -5 -25
-42 -28 l-43 -3 0 -123 c0 -112 -2 -124 -19 -129 -10 -2 -26 0 -35 5 -13 8
-16 28 -16 128 l0 120 -35 0 c-37 0 -52 17 -41 45 5 13 25 15 118 13 l113 -3
0 -25z m103 -127 c2 -138 1 -152 -15 -155 -10 -2 -26 -2 -35 0 -16 4 -18 20
-18 151 0 81 3 151 7 155 4 4 19 6 33 4 l25 -3 3 -152z m100 145 c5 -7 25 -62
43 -123 l33 -109 36 110 c19 60 39 115 43 122 11 16 46 15 53 -1 2 -7 -17 -76
-44 -152 -51 -144 -63 -161 -110 -148 -16 4 -31 36 -70 151 -28 81 -48 150
-45 155 7 12 50 8 61 -5z m421 -2 c23 -28 2 -46 -55 -46 l-54 0 0 -34 c0 -34
1 -35 48 -38 39 -3 47 -6 47 -23 0 -17 -8 -20 -47 -23 l-48 -3 0 -39 0 -39 58
-3 c49 -3 57 -6 57 -23 0 -19 -7 -20 -90 -20 l-90 0 -3 144 c-2 109 1 146 10
153 23 14 154 10 167 -6z"/>
<path d="M1436 1318 c-24 -34 -21 -133 4 -158 26 -26 81 -26 105 0 25 27 31
97 12 143 -15 35 -19 37 -61 37 -35 0 -48 -5 -60 -22z"/>
<path d="M2176 1318 c-24 -34 -21 -133 4 -158 26 -26 81 -26 105 0 25 27 31
97 12 143 -15 35 -19 37 -61 37 -35 0 -48 -5 -60 -22z"/>
</g>
</svg>
